<svg width="7" height="7" viewBox="0 0 7 7" fill="none" xmlns="http://www.w3.org/2000/svg">
<path d="M5.93306 0.183058C6.17714 -0.0610194 6.57286 -0.0610194 6.81694 0.183058C7.06102 0.427136 7.06102 0.822864 6.81694 1.06694L4.38388 3.5L6.81694 5.93306C7.06102 6.17714 7.06102 6.57286 6.81694 6.81694C6.57286 7.06102 6.17714 7.06102 5.93306 6.81694L3.5 4.38388L1.06694 6.81694C0.822864 7.06102 0.427136 7.06102 0.183058 6.81694C-0.0610194 6.57286 -0.0610194 6.17714 0.183058 5.93306L2.61612 3.5L0.183058 1.06694C-0.0610194 0.822864 -0.0610194 0.427136 0.183058 0.183058C0.427136 -0.0610194 0.822864 -0.0610194 1.06694 0.183058L3.5 2.61612L5.93306 0.183058Z" fill="black"/>
</svg>
